<?xml version="1.0" standalone="no"?>
<!DOCTYPE svg PUBLIC "-//W3C//DTD SVG 20010904//EN"
 "http://www.w3.org/TR/2001/REC-SVG-20010904/DTD/svg10.dtd">
<svg version="1.0" xmlns="http://www.w3.org/2000/svg"
 width="684.000000pt" height="235.000000pt" viewBox="0 0 684.000000 235.000000"
 preserveAspectRatio="xMidYMid meet">

<g transform="translate(0.000000,235.000000) scale(0.100000,-0.100000)"
fill="#000000" stroke="none">
<path d="M725 2184 c-154 -63 -303 -124 -331 -135 -27 -10 -59 -25 -70 -33
-17 -13 -17 -16 -4 -29 8 -8 62 -33 120 -56 160 -65 150 -52 150 -179 0 -72 4
-114 13 -126 8 -11 36 -20 82 -27 127 -18 192 -43 282 -110 29 -22 55 -39 58
-39 4 0 24 15 46 33 73 63 215 116 310 117 21 0 44 8 57 20 20 19 22 31 22
129 0 78 4 112 13 120 21 16 144 61 151 54 14 -15 5 -135 -13 -171 -10 -20
-22 -52 -26 -70 l-7 -33 64 3 c61 3 63 4 60 28 -1 14 -11 42 -22 63 -15 29
-20 57 -20 120 l0 82 40 17 c43 18 52 41 21 57 -10 6 -115 49 -232 97 -118 47
-267 108 -331 135 -65 27 -126 49 -135 49 -10 0 -144 -52 -298 -116z"/>
<path d="M2362 1658 c-8 -8 -12 -46 -12 -115 l0 -103 -74 0 c-85 0 -86 -1 -86
-85 0 -62 4 -65 95 -65 l63 0 4 -212 c3 -239 7 -251 81 -312 38 -31 40 -31
150 -31 l112 0 3 58 c4 77 -5 87 -80 87 -73 0 -93 10 -107 52 -11 37 -15 315
-5 341 5 14 21 17 88 17 50 0 87 5 94 12 7 7 12 35 12 63 0 28 -5 56 -12 63
-7 7 -44 12 -95 12 -97 0 -92 -7 -96 135 l-2 90 -60 3 c-38 2 -65 -2 -73 -10z"/>
<path d="M3735 1658 c-3 -7 -6 -58 -7 -113 l-3 -100 -70 -3 c-81 -3 -95 -14
-95 -77 0 -63 14 -74 95 -77 l70 -3 5 -220 c3 -140 9 -227 17 -240 18 -32 55
-63 95 -80 46 -19 208 -21 226 -3 16 16 16 110 0 126 -7 7 -40 12 -80 12 -108
0 -108 0 -108 225 l0 184 93 3 92 3 0 70 0 70 -92 3 -93 3 0 102 c0 67 -4 107
-12 115 -16 16 -127 16 -133 0z"/>
<path d="M2870 1441 l-45 -6 0 -245 0 -245 28 -57 c32 -65 87 -116 163 -150
73 -33 189 -32 264 3 77 36 124 80 157 147 28 57 28 58 31 293 4 272 5 269
-78 269 -80 0 -80 1 -80 -246 0 -194 -2 -219 -20 -253 -52 -104 -214 -113
-283 -17 -21 29 -22 43 -27 264 -6 275 2 258 -110 243z"/>
<path d="M4393 1431 c-271 -100 -324 -477 -91 -647 254 -187 608 11 586 327
-10 130 -100 259 -218 312 -67 30 -208 34 -277 8z m234 -161 c129 -74 150
-236 44 -341 -91 -92 -209 -92 -302 1 -106 106 -80 278 52 344 74 36 137 35
206 -4z"/>
<path d="M5018 1439 c-17 -9 -18 -37 -18 -355 l0 -344 23 -9 c22 -9 112 -5
128 5 5 3 9 98 9 211 0 189 2 210 21 249 28 58 74 85 155 92 75 6 86 17 83 88
-4 64 -20 78 -85 71 -49 -5 -146 -46 -159 -67 -13 -21 -25 -9 -25 24 0 22 -6
36 -16 40 -25 9 -97 6 -116 -5z"/>
<path d="M5528 1439 c-17 -9 -18 -37 -18 -347 0 -250 3 -341 12 -350 7 -7 38
-12 70 -12 47 0 59 4 68 20 6 12 10 93 9 209 -1 176 0 194 21 235 29 61 73 87
155 91 36 2 69 7 75 10 14 9 13 128 -2 143 -28 28 -164 1 -216 -43 -36 -30
-46 -31 -39 -6 9 37 -19 61 -71 61 -26 0 -55 -5 -64 -11z"/>
<path d="M6210 1433 c-95 -33 -174 -107 -218 -202 -22 -47 -26 -71 -26 -151
-1 -88 2 -101 32 -162 65 -133 179 -202 332 -202 81 0 131 14 210 61 3 2 10
-7 15 -19 13 -29 92 -47 130 -30 l25 12 0 343 c0 253 -3 346 -12 355 -7 7 -34
12 -60 12 -54 0 -92 -27 -81 -56 3 -9 2 -15 -3 -12 -5 2 -38 18 -74 36 -57 28
-75 32 -145 32 -46 -1 -99 -8 -125 -17z m215 -152 c49 -22 99 -77 115 -126 19
-58 9 -146 -23 -194 -80 -121 -262 -128 -356 -14 -80 97 -56 242 54 319 17 12
39 24 50 27 45 11 122 6 160 -12z"/>
<path d="M258 1423 c-14 -9 -31 -27 -37 -40 -7 -16 -11 -168 -11 -454 l0 -431
29 -29 29 -29 315 0 315 0 6 -31 c10 -54 7 -70 -23 -100 l-29 -29 -236 0
c-200 0 -237 -2 -250 -16 -19 -18 -21 -85 -4 -102 17 -17 1309 -17 1326 0 7 7
12 31 12 55 0 32 -5 45 -19 53 -12 6 -110 10 -249 10 -216 0 -231 1 -255 20
-31 24 -43 74 -28 113 l11 27 313 0 c303 0 315 1 341 21 l26 20 0 454 0 453
-31 26 c-31 27 -46 31 -73 20 -14 -5 -16 -46 -16 -354 l0 -349 -24 -19 c-16
-12 -56 -23 -113 -31 -176 -24 -396 -94 -504 -161 l-52 -32 -86 45 c-135 71
-329 129 -509 153 -29 4 -63 15 -75 24 -22 18 -22 23 -27 372 -5 344 -6 353
-25 355 -11 2 -32 -5 -47 -14z"/>
</g>
</svg>
